<svg width="18" height="18" viewBox="0 0 18 18" fill="none" xmlns="http://www.w3.org/2000/svg">
<path d="M9 9C9 8.4477 9.4477 8 10 8H16C16.5523 8 17 8.4477 17 9V16C17 16.5523 16.5523 17 16 17H10C9.4477 17 9 16.5523 9 16V9Z" stroke="#000088" stroke-width="2" stroke-linecap="round"/>
<path d="M1 2C1 1.44772 1.44772 1 2 1H5C5.55228 1 6 1.44772 6 2V16C6 16.5523 5.55228 17 5 17H2C1.44772 17 1 16.5523 1 16V2Z" stroke="#000088" stroke-width="2" stroke-linecap="round"/>
<path d="M9 2C9 1.44772 9.4477 1 10 1H16C16.5523 1 17 1.44772 17 2V4C17 4.55228 16.5523 5 16 5H10C9.4477 5 9 4.55228 9 4V2Z" stroke="#000088" stroke-width="2" stroke-linecap="round"/>
</svg>
