
<svg version="1.1" xmlns="http://www.w3.org/2000/svg" xmlnsXlink="http://www.w3.org/1999/xlink" x="0px" y="0px" viewBox="0 0 256 256" enable-background="new 0 0 256 256" xml:space="preserve">
<metadata> Svg Vector Icons : http://www.onlinewebfonts.com/icon </metadata>
<g><g><g><path fill="#000000" d="M13.2,9.8c-0.6,0.3-1.6,1.3-2.2,2l-1,1.4V115v101.9l1.1,1.7c0.6,1,1.8,2.1,2.7,2.5c1.5,0.7,158.2,25.5,161.2,25.5c2.1,0,3.6-0.8,4.6-2.4c0.7-1.1,0.8-2.8,0.8-9.2v-7.8h11.8c10.9,0,11.8,0,13.3-1c3.1-1.9,3-1.4,3-32.8c0-31.4,0.1-30.5-3.1-32.8c-1.2-0.9-2.2-1-8.1-1.2l-6.7-0.2v2.5v2.5h5.7c5,0,5.9,0.1,6.6,0.9c0.7,0.8,0.8,3.4,0.7,29l-0.1,28.1l-11.5,0.1l-11.5,0.1v-19.2c0-25.2,0.6-23.9-11.4-25.3c-7.6-0.9-8.6-1.3-10.6-4.1c-0.8-1.1-1-2.2-1.2-6.6l-0.2-5.3l-23.2-16.6l-23.2-16.6l13.7-10.2c7.5-5.6,18-13.3,23.2-17.3l9.6-7.1l-0.1-32.8l-0.1-32.8l-1.5-1.5c-0.8-0.8-2.2-1.7-3.1-1.9c-0.9-0.3-21.8-2.8-46.3-5.6c-24.5-2.8-44.9-5.2-45.3-5.3c-0.4-0.1,25.8-0.1,58.1-0.1c32.4,0,59.2,0.3,59.5,0.5c0.4,0.3,0.6,7.5,0.6,33.3c0,19.8,0.2,32.9,0.4,32.9s1.4-0.7,2.6-1.6l2.1-1.6l0.1-31.5c0.1-35.2,0.2-33.7-3.3-35.8c-1.7-1-2.2-1-84.1-1.1C30.2,9.2,14.1,9.3,13.2,9.8z"/><path fill="#000000" d="M242.9,85.5c-12.2,11.2-30.3,20.6-46.1,24c-4.7,1-12.6,2-15.7,2h-1.7V99.1c0-7.8-0.2-12.3-0.5-12.2c-1.4,0.5-57.2,41.8-56.8,42.1c0.2,0.2,13.1,9.4,28.7,20.3l28.3,20l0.1-9.7l0.1-9.7h1.3c0.7,0,2.6-0.3,4.3-0.7c21.1-5.3,38.1-17.6,49.6-35.9c2.5-4,6.7-13.2,8.5-18.7c1.6-5,3.3-11.6,3-11.6C245.8,82.9,244.5,84.1,242.9,85.5z"/></g></g></g>
</svg>